<?xml version="1.0" encoding="UTF-8" standalone="no"?>
<svg
   xmlns:svg="http://www.w3.org/2000/svg"
   xmlns="http://www.w3.org/2000/svg"
   viewBox="0 -256 1792 1792"
   version="1.1"
   width="100%"
   height="100%">
  <g
     transform="matrix(1,0,0,-1,121.49153,1270.2373)">
    <path
       d="m 1184,640 q 0,-26 -19,-45 L 621,51 Q 602,32 576,32 550,32 531,51 512,70 512,96 V 384 H 64 Q 38,384 19,403 0,422 0,448 v 384 q 0,26 19,45 19,19 45,19 h 448 v 288 q 0,26 19,45 19,19 45,19 26,0 45,-19 l 544,-544 q 19,-19 19,-45 z m 352,352 V 288 Q 1536,169 1451.5,84.5 1367,0 1248,0 H 928 Q 915,0 905.5,9.5 896,19 896,32 q 0,4 -1,20 -1,16 -0.5,26.5 0.5,10.5 3,23.5 2.5,13 10,19.5 7.5,6.5 20.5,6.5 h 320 q 66,0 113,47 47,47 47,113 v 704 q 0,66 -47,113 -47,47 -113,47 H 960 949 936 q 0,0 -11.5,1 -11.5,1 -11.5,3 0,2 -8,5.5 -8,3.5 -7,9 1,5.5 -2,13.5 0,4 -1,20 -1,16 -0.5,26.5 0.5,10.5 3,23.5 2.5,13 10,19.5 7.5,6.5 20.5,6.5 h 320 q 119,0 203.5,-84.5 Q 1536,1111 1536,992 z" />
  </g>
</svg>
